# xmcd
#
# Track frame offsets: 
#        150
#        27583
#        47496
#        75940
#        103474
#        139797
#        172304
#        195699
#
# Disc length: 3135 seconds
#
# Revision: 0
# Processed by: cddbd v1.5.2PL0 Copyright (c) Steve Scherf et al.
# Submitted via: ExactAudioCopy v1.3
#
DISCID=6d0c3d08
DTITLE=Lustmord - First Reformed (Extended Soundtrack)
DYEAR=2019
DGENRE=Soundtrack
TTITLE0=Revelation
TTITLE1=Hanstown Kills
TTITLE2=Discernment
TTITLE3=Eden
TTITLE4=Awakening
TTITLE5=Accursed
TTITLE6=Everlasting
TTITLE7=So Be It
EXTD=
EXTT0=
EXTT1=
EXTT2=
EXTT3=
EXTT4=
EXTT5=
EXTT6=
EXTT7=
PLAYORDER=
